<svg version="1.1" id="Layer_1" xmlns="http://www.w3.org/2000/svg" xmlns:xlink="http://www.w3.org/1999/xlink" x="0px" y="0px"
	 viewBox="0 0 28 28" style="enable-background:new 0 0 28 28;" xml:space="preserve">
	<path fill="#009EE6" d="M7.5,15.8c0,0.6-0.5,1.1-1.1,1.1c-0.6,0-1.1-0.5-1.1-1.1s0.5-1.1,1.1-1.1C7,14.7,7.5,15.2,7.5,15.8z M6.4,19.7
		c-0.6,0-1.1,0.5-1.1,1.1S5.8,22,6.4,22c0.6,0,1.1-0.5,1.1-1.1S7,19.7,6.4,19.7z M11.4,14.7c-0.6,0-1.1,0.5-1.1,1.1
		c0,0.6,0.5,1.1,1.1,1.1s1.1-0.5,1.1-1.1C12.5,15.2,12,14.7,11.4,14.7z M11.4,19.7c-0.6,0-1.1,0.5-1.1,1.1s0.5,1.1,1.1,1.1
		s1.1-0.5,1.1-1.1S12,19.7,11.4,19.7z M16.3,14.7c-0.6,0-1.1,0.5-1.1,1.1c0,0.6,0.5,1.1,1.1,1.1c0.6,0,1.1-0.5,1.1-1.1
		C17.4,15.2,16.9,14.7,16.3,14.7z M16.3,19.7c-0.6,0-1.1,0.5-1.1,1.1s0.5,1.1,1.1,1.1c0.6,0,1.1-0.5,1.1-1.1S16.9,19.7,16.3,19.7z
		 M21.2,14.7c-0.6,0-1.1,0.5-1.1,1.1c0,0.6,0.5,1.1,1.1,1.1c0.6,0,1.1-0.5,1.1-1.1C22.4,15.2,21.9,14.7,21.2,14.7z M21.2,19.7
		c-0.6,0-1.1,0.5-1.1,1.1s0.5,1.1,1.1,1.1c0.6,0,1.1-0.5,1.1-1.1S21.9,19.7,21.2,19.7z M27.9,5.6v19.3c0,1.6-1.3,3-3,3H3
		c-1.6,0-3-1.3-3-3V5.6c0-1.6,1.3-3,3-3h1.7c0.4,0,0.8,0.4,0.8,0.8S5.2,4.3,4.7,4.3H3c-0.7,0-1.4,0.6-1.4,1.4v3.8h24.7V5.6
		c0-0.7-0.6-1.4-1.4-1.4h-1.7c-0.4,0-0.8-0.4-0.8-0.8s0.4-0.8,0.8-0.8H25C26.6,2.7,27.9,4,27.9,5.6z M26.3,24.9V11H1.7v13.9
		c0,0.7,0.6,1.4,1.4,1.4h22C25.7,26.3,26.3,25.7,26.3,24.9z M8.1,6.4c0.4,0,0.8-0.4,0.8-0.8V4.3h7.4c0.4,0,0.8-0.4,0.8-0.8
		s-0.4-0.8-0.8-0.8H8.9V1.3c0-0.4-0.4-0.8-0.8-0.8c-0.4,0-0.8,0.4-0.8,0.8v4.4C7.3,6.1,7.7,6.4,8.1,6.4z M19.9,6.4
		c0.4,0,0.8-0.4,0.8-0.8V1.3c0-0.4-0.4-0.8-0.8-0.8s-0.8,0.4-0.8,0.8v4.4C19.1,6.1,19.4,6.4,19.9,6.4z"/>
</svg>
