<?xml version="1.0" encoding="UTF-8" standalone="no"?>
<svg width="14px" height="14px" viewBox="0 0 14 14" version="1.1" xmlns="http://www.w3.org/2000/svg" xmlns:xlink="http://www.w3.org/1999/xlink">
    
    <title>icon_globe</title>
    
    <defs></defs>
    <g id="Symbols" stroke="none" stroke-width="1" fill="none" fill-rule="evenodd" opacity="0.7">
        <g id="footer" transform="translate(-1126.000000, -226.000000)" fill="#FFFFFF">
            <g id="icon_globe">
                <g transform="translate(1126.000000, 226.000000)">
                    <path d="M7,0 C3.15,0 0,3.15 0,7 C0,10.85 3.15,14 7,14 C10.85,14 14,10.85 14,7 C14,3.15 10.85,0 7,0 L7,0 Z M12.1625,6.125 L10.5,6.125 C10.4125,4.8125 10.15,3.5875 9.8,2.5375 C11.025,3.325 11.9,4.6375 12.1625,6.125 L12.1625,6.125 Z M7,12.25 C6.475,12.25 5.425,10.5875 5.25,7.875 L8.75,7.875 C8.575,10.5875 7.525,12.25 7,12.25 L7,12.25 Z M5.25,6.125 C5.425,3.4125 6.3875,1.75 7,1.75 C7.6125,1.75 8.575,3.4125 8.75,6.125 L5.25,6.125 L5.25,6.125 Z M4.2875,2.5375 C3.85,3.5875 3.5875,4.8125 3.5,6.125 L1.8375,6.125 C2.1,4.6375 2.975,3.325 4.2875,2.5375 L4.2875,2.5375 Z M1.8375,7.875 L3.5,7.875 C3.5875,9.1875 3.85,10.4125 4.2,11.4625 C2.975,10.675 2.1,9.3625 1.8375,7.875 L1.8375,7.875 Z M9.7125,11.4625 C10.15,10.4125 10.325,9.1875 10.4125,7.875 L12.075,7.875 C11.9,9.3625 11.025,10.675 9.7125,11.4625 L9.7125,11.4625 Z" id="Shape"></path>
                </g>
            </g>
        </g>
    </g>
</svg>